<?xml version="1.0" standalone="no"?>
<!DOCTYPE svg PUBLIC "-//W3C//DTD SVG 20010904//EN"
 "http://www.w3.org/TR/2001/REC-SVG-20010904/DTD/svg10.dtd">
<svg version="1.0" xmlns="http://www.w3.org/2000/svg"
 width="1280.000000pt" height="960.000000pt" viewBox="0 0 1280.000000 960.000000"
 preserveAspectRatio="xMidYMid meet">
<g transform="translate(0.000000,960.000000) scale(0.100000,-0.100000)"
fill="#ff9800" stroke="none">
<path d="M6110 9213 c-30 -2 -118 -10 -195 -18 -1491 -163 -2802 -1079 -3479
-2433 -420 -840 -562 -1812 -401 -2741 155 -890 574 -1702 1214 -2354 702
-715 1643 -1176 2636 -1292 303 -35 727 -35 1030 0 1285 150 2448 865 3172
1950 642 963 879 2126 667 3275 -149 810 -528 1564 -1100 2192 -178 195 -387
383 -607 547 -685 510 -1450 798 -2312 871 -109 9 -491 11 -625 3z m805 -422
c891 -123 1666 -497 2298 -1110 337 -328 587 -665 797 -1076 472 -925 566
-2013 260 -3004 -416 -1344 -1505 -2382 -2865 -2729 -659 -169 -1361 -169
-2010 -2 -1324 341 -2396 1336 -2831 2625 -147 437 -206 805 -207 1280 -1 379
28 627 113 970 284 1148 1061 2119 2118 2649 430 215 921 360 1377 405 61 6
126 13 145 15 19 2 175 3 345 1 244 -3 342 -8 460 -24z"/>
<path d="M5500 7830 c-13 -8 -16 -73 -20 -449 -3 -242 -9 -443 -13 -448 -5 -4
-251 -9 -547 -11 -482 -2 -540 -4 -552 -19 -10 -13 -13 -76 -13 -292 0 -152 3
-288 7 -302 l8 -27 242 -4 c193 -4 252 -9 288 -22 80 -30 116 -61 149 -128
l31 -63 -2 -1285 -3 -1285 -22 -35 c-12 -20 -41 -47 -65 -60 -42 -24 -50 -25
-276 -28 l-233 -4 -10 -25 c-10 -27 -80 -427 -98 -566 -18 -129 -64 -117 462
-118 451 -1 618 -7 634 -22 4 -5 10 -206 13 -447 4 -341 8 -442 18 -452 10
-10 72 -14 245 -16 263 -4 313 0 322 28 3 10 7 208 9 441 3 394 5 423 22 436
25 18 328 18 364 0 l25 -13 5 -431 c4 -336 8 -435 18 -445 10 -10 75 -13 283
-13 229 0 271 2 279 15 6 9 10 188 10 435 0 318 3 426 13 445 15 29 29 33 246
55 527 54 879 188 1111 424 219 221 324 522 323 931 -1 315 -88 547 -275 726
-90 87 -192 150 -333 209 -59 24 -110 46 -113 49 -2 3 47 54 109 115 169 161
237 287 275 503 21 118 14 334 -15 460 -49 213 -161 389 -329 515 -197 149
-452 238 -832 294 -89 12 -151 26 -160 35 -13 12 -16 80 -20 447 -3 238 -9
438 -13 445 -6 9 -74 12 -282 12 -208 0 -276 -3 -282 -12 -4 -7 -10 -203 -13
-435 -4 -322 -8 -425 -18 -435 -17 -17 -366 -18 -383 -1 -9 9 -13 118 -15 433
-2 308 -6 425 -15 436 -9 11 -59 14 -278 14 -150 0 -273 -4 -281 -10z m1140
-1601 c211 -19 390 -67 500 -134 80 -49 163 -141 189 -209 70 -189 36 -370
-93 -494 -118 -113 -297 -180 -576 -213 -118 -14 -544 -19 -557 -6 -13 14 -16
1026 -3 1042 7 8 28 16 48 18 82 8 384 6 492 -4z m40 -1679 c584 -34 888 -199
940 -510 26 -154 -18 -290 -131 -403 -117 -117 -308 -193 -601 -238 -105 -17
-200 -22 -455 -26 l-323 -6 -10 27 c-16 43 -14 1132 3 1143 30 20 340 27 577
13z"/>
</g>
</svg>
